<svg classs="rr-logo-svg" version="1.1" id="Layer_1" xmlns="http://www.w3.org/2000/svg" xmlns:xlink="http://www.w3.org/1999/xlink" x="0px" y="0px"
	 viewBox="0 0 340.5 340.5" style="enable-background:new 0 0 340.5 340.5;" xml:space="preserve">
<circle class="rr-logo-circle" cx="170.3" cy="170.3" r="162.8"/>
<path d="M217.8,170.9h-19.7c-0.8,7.3-2.4,14.4-4.9,21.3l-21.1-26.3c13.3-7.1,24.5-18.7,24.5-35c0-22.2-16.6-33.2-34.5-33.2
	c-18.8,0-34.1,13-34.1,33c0,12.1,6.9,21.2,13.9,30.4c-15.8,8.1-31.8,20.7-31.8,40.1c0,26,18.4,41.3,43.8,41.3
	c16.2,0,28.7-5.8,38.9-18.3l12.5,15.5h26.3L206,207.9C212,198.2,216.5,182.9,217.8,170.9z M162.8,114.3c8.4,0,14.1,6.8,14.1,16
	c0,11.2-8.1,16.9-16.3,22.6c-5-6.9-12.6-14.1-12.6-23.1C148,120.2,154.6,114.3,162.8,114.3z M154.8,225.1
	c-12.9,0-22.5-8.5-22.5-23.4c0-16.5,13.2-21.1,21.3-26.2l28.8,35.6C176.7,217.1,169.2,224.8,154.8,225.1z"/>
</svg>
