<svg xmlns="http://www.w3.org/2000/svg" viewBox="0 0 886.8 340.4"><defs><style>.cls-1{fill:#fff;}</style></defs><title>rr-logo-only</title><g id="Layer_2" data-name="Layer 2"><g id="Layer_1-2" data-name="Layer 1"><path class="cls-1" d="M225.16,145.42V145c0-11.89-4.12-22-11.31-29.44-8.77-8.6-22.26-13.66-39.39-13.66H113.58V238.46h24V190.88h29.21l38.39,47.58h27.39l-40.93-50.82C210.57,182.18,225.16,167.79,225.16,145.42ZM137.6,169.56V123.75h34.86c17.78,0,28.32,8,28.32,22.61v.47c0,13.78-10.95,22.73-28.09,22.73Z"/><path class="cls-1" d="M716.6,0a169.91,169.91,0,0,0-136.47,68.5,170.17,170.17,0,0,0-273.19.36,170.19,170.19,0,1,0,0,202.64,170.17,170.17,0,0,0,273.2.36A170.18,170.18,0,1,0,716.6,0ZM170.22,325.37c-85.55,0-155.17-69.61-155.17-155.16S84.68,15,170.22,15A155,155,0,0,1,297.94,82.28a170.31,170.31,0,0,0,0,175.86A155.09,155.09,0,0,1,170.22,325.37ZM306.94,97a154.85,154.85,0,0,1,0,146.5A154.85,154.85,0,0,1,306.94,97ZM443.66,325.37a155.07,155.07,0,0,1-127.73-67.23,170.31,170.31,0,0,0,0-175.86,155,155,0,0,1,255.18-.4,170.36,170.36,0,0,0,0,176.65A155.09,155.09,0,0,1,443.66,325.37ZM580.14,96.46a154.93,154.93,0,0,1,0,147.5A154.93,154.93,0,0,1,580.14,96.46ZM716.6,325.37a155,155,0,0,1-127.45-66.84,170.31,170.31,0,0,0,0-176.64A155,155,0,0,1,716.6,15c85.55,0,155.14,69.65,155.14,155.2S802.15,325.37,716.6,325.37Z"/><path class="cls-1" d="M784.64,145.42V145c0-11.89-4.12-22-11.31-29.44-8.77-8.6-22.26-13.66-39.39-13.66H673.05V238.46h24V190.88h29.21l38.39,47.58H792l-40.93-50.82C770.05,182.18,784.64,167.79,784.64,145.42Zm-87.59,24.14V123.75h34.86c17.78,0,28.32,8,28.32,22.61v.47c0,13.78-11,22.73-28.09,22.73Z"/><path class="cls-1" d="M496.86,171H477.14a93.73,93.73,0,0,1-4.85,21.26L451.18,166c13.3-7.11,24.54-18.67,24.54-35,0-22.2-16.59-33.15-34.55-33.15-18.82,0-34.11,13-34.11,33,0,12.09,6.9,21.22,13.91,30.35-15.8,8.12-31.78,20.67-31.78,40.15,0,26,18.38,41.3,43.8,41.3,16.2,0,28.72-5.78,38.9-18.29l12.51,15.53h26.31L485,208C491.05,198.18,495.51,183,496.86,171Zm-55-56.63c8.41,0,14.11,6.76,14.11,16,0,11.23-8.06,16.91-16.33,22.55-5-6.9-12.58-14.05-12.58-23.13C427.05,120.26,433.62,114.33,441.86,114.33ZM433.8,225.16c-12.9,0-22.46-8.49-22.46-23.35,0-16.52,13.16-21.09,21.3-26.16l28.78,35.6C455.76,217.15,448.22,224.81,433.8,225.16Z"/></g></g></svg>