<?xml version="1.0" encoding="utf-8"?>
<!-- Generator: Adobe Illustrator 23.0.1, SVG Export Plug-In . SVG Version: 6.00 Build 0)  -->
<!DOCTYPE svg PUBLIC "-//W3C//DTD SVG 1.1//EN" "http://www.w3.org/Graphics/SVG/1.1/DTD/svg11.dtd" [
	<!ENTITY ns_extend "http://ns.adobe.com/Extensibility/1.0/">
	<!ENTITY ns_ai "http://ns.adobe.com/AdobeIllustrator/10.0/">
	<!ENTITY ns_graphs "http://ns.adobe.com/Graphs/1.0/">
	<!ENTITY ns_vars "http://ns.adobe.com/Variables/1.0/">
	<!ENTITY ns_imrep "http://ns.adobe.com/ImageReplacement/1.0/">
	<!ENTITY ns_sfw "http://ns.adobe.com/SaveForWeb/1.0/">
	<!ENTITY ns_custom "http://ns.adobe.com/GenericCustomNamespace/1.0/">
	<!ENTITY ns_adobe_xpath "http://ns.adobe.com/XPath/1.0/">
]>
<svg fill="white" version="1.1" id="Layer_1" xmlns:x="&ns_extend;" xmlns:i="&ns_ai;" xmlns:graph="&ns_graphs;"
	 xmlns="http://www.w3.org/2000/svg" xmlns:xlink="http://www.w3.org/1999/xlink" x="0px" y="0px" viewBox="0 0 1827 340"
	 style="enable-background:new 0 0 1827 340;" xml:space="preserve">
<metadata>
	<sfw  xmlns="&ns_sfw;">
		<slices></slices>
		<sliceSourceBounds  bottomLeftOrigin="true" height="340.37" width="1827.22" x="46.78" y="-710.87"></sliceSourceBounds>
	</sfw>
</metadata>
<g>
	<g>
		<path d="M997.58,127.2h33.5c19.91,0,32.29,11.29,32.29,28.4v0.25c0,19.05-15.3,29.01-33.99,29.01h-16.87v27.31h-14.93V127.2z
			 M1029.86,171.39c11.29,0,18.33-6.31,18.33-15.17v-0.25c0-9.96-7.16-15.17-18.33-15.17h-17.36v30.59H1029.86z"/>
		<path d="M1124.53,126.6h13.84l37.39,85.58h-15.78l-8.62-20.52h-40.18l-8.74,20.52h-15.3L1124.53,126.6z M1145.9,178.43
			l-14.69-33.99l-14.57,33.99H1145.9z"/>
		<path d="M1214.58,127.2h37.88c10.68,0,19.06,3.16,24.52,8.5c4.49,4.61,7.04,10.93,7.04,18.33v0.24c0,13.96-8.38,22.34-20.15,25.74
			l22.94,32.17h-17.72l-20.88-29.62h-18.69v29.62h-14.93V127.2z M1251.36,169.32c10.68,0,17.48-5.58,17.48-14.2v-0.24
			c0-9.1-6.55-14.08-17.6-14.08h-21.73v28.52H1251.36z"/>
		<path d="M1347.11,141.04h-26.95V127.2h68.95v13.84h-26.95v71.14h-15.05V141.04z"/>
		<path d="M1429.15,127.2h13.84l45.52,58.76V127.2h14.69v84.97h-12.5l-46.86-60.45v60.45h-14.69V127.2z"/>
		<path d="M1549.3,127.2h63v13.35h-48.07v22.1h42.61V176h-42.61v22.82h48.68v13.35h-63.61V127.2z"/>
		<path d="M1654.89,127.2h37.88c10.68,0,19.06,3.16,24.52,8.5c4.49,4.61,7.04,10.93,7.04,18.33v0.24c0,13.96-8.38,22.34-20.15,25.74
			l22.94,32.17h-17.72l-20.88-29.62h-18.69v29.62h-14.93V127.2z M1691.67,169.32c10.68,0,17.48-5.58,17.48-14.2v-0.24
			c0-9.1-6.55-14.08-17.6-14.08h-21.73v28.52H1691.67z"/>
		<path d="M1761.21,199.79l8.98-10.68c8.13,7.04,16.39,11.05,26.83,11.05c9.22,0,15.05-4.37,15.05-10.69v-0.24
			c0-6.07-3.4-9.35-19.18-12.99c-18.09-4.37-28.28-9.71-28.28-25.37v-0.25c0-14.57,12.14-24.64,29.01-24.64
			c12.38,0,22.21,3.77,30.83,10.69l-8.01,11.29c-7.65-5.7-15.3-8.74-23.06-8.74c-8.74,0-13.84,4.49-13.84,10.08v0.25
			c0,6.55,3.88,9.47,20.27,13.35c17.96,4.37,27.19,10.81,27.19,24.89v0.24c0,15.9-12.5,25.37-30.35,25.37
			C1783.66,213.39,1771.4,208.9,1761.21,199.79z"/>
	</g>
	<g>
		<path d="M224.89,144.9v-0.35c0-11.89-4.12-22.02-11.31-29.44c-8.77-8.6-22.26-13.66-39.39-13.66h-60.88v136.49h24.02v-47.58h29.21
			l38.39,47.58l27.39-0.04l-40.93-50.82C210.3,181.66,224.89,167.27,224.89,144.9z M137.33,169.04v-45.81h34.86
			c17.78,0,28.32,8.01,28.32,22.61v0.47c0,13.78-10.95,22.73-28.09,22.73H137.33z"/>
		<path d="M716.33-0.5c-55.87,0-105.44,26.92-136.47,68.5C548.84,26.43,499.26-0.5,443.39-0.5c-56.02,0-105.71,27.08-136.72,68.86
			C275.66,26.58,225.97-0.5,169.95-0.5C75.96-0.5-0.22,75.69-0.22,169.69c0,93.97,76.18,170.18,170.17,170.18
			c56.02,0,105.71-27.09,136.72-68.87c31.01,41.78,80.7,68.87,136.72,68.87c55.87,0,105.45-26.93,136.48-68.51
			c31.03,41.58,80.6,68.51,136.47,68.51c93.98,0,170.17-76.21,170.17-170.18C886.5,75.69,810.32-0.5,716.33-0.5z M169.95,324.85
			c-85.55,0-155.14-69.61-155.14-155.16c0-85.55,69.6-155.16,155.14-155.16c52.92,0,99.71,26.66,127.72,67.23
			c-15.52,25.66-24.45,55.75-24.45,87.93c0,32.17,8.94,62.26,24.46,87.93C269.66,298.19,222.87,324.85,169.95,324.85z M306.67,96.44
			c11.74,21.83,18.42,46.77,18.42,73.25s-6.68,51.42-18.42,73.25c-11.74-21.83-18.42-46.77-18.42-73.25S294.93,118.27,306.67,96.44z
			 M443.39,324.85c-52.92,0-99.72-26.66-127.73-67.23c15.52-25.66,24.46-55.75,24.46-87.93c0-32.18-8.94-62.27-24.45-87.93
			c28.01-40.57,74.81-67.23,127.72-67.23c52.75,0,99.41,26.49,127.46,66.83c-15.66,25.75-24.68,55.98-24.68,88.33
			c0,32.34,9.02,62.57,24.69,88.32C542.81,298.36,496.15,324.85,443.39,324.85z M579.87,95.94c11.91,21.95,18.68,47.07,18.68,73.75
			s-6.77,51.8-18.68,73.75c-11.91-21.95-18.68-47.07-18.68-73.75S567.96,117.89,579.87,95.94z M716.33,324.85
			c-52.75,0-99.41-26.49-127.45-66.84c15.67-25.75,24.69-55.98,24.69-88.32c0-32.34-9.02-62.58-24.69-88.32
			c28.04-40.35,74.7-66.83,127.45-66.83c85.55,0,155.14,69.61,155.14,155.16C871.48,255.24,801.88,324.85,716.33,324.85z"/>
		<path d="M784.37,144.9v-0.35c0-11.89-4.12-22.02-11.31-29.44c-8.77-8.6-22.26-13.66-39.39-13.66h-60.88v136.49h24.02v-47.58h29.21
			l38.39,47.58l27.39-0.04l-40.93-50.82C769.77,181.66,784.37,167.27,784.37,144.9z M696.81,169.04v-45.81h34.86
			c17.78,0,28.32,8.01,28.32,22.61v0.47c0,13.78-10.95,22.73-28.09,22.73H696.81z"/>
		<path d="M496.59,170.44h-19.72c-0.91,8.85-3.29,17.02-4.85,21.26l-21.11-26.26c13.3-7.11,24.54-18.67,24.54-35
			c0-22.2-16.59-33.15-34.55-33.15c-18.82,0-34.11,13.02-34.11,33c0,12.09,6.9,21.22,13.91,30.35
			c-15.8,8.12-31.78,20.67-31.78,40.15c0,26.04,18.38,41.3,43.8,41.3c16.2,0,28.72-5.78,38.9-18.29l12.51,15.53l26.31-0.04
			l-25.71-31.9C490.82,197.66,495.24,182.43,496.59,170.44z M441.59,113.81c8.41,0,14.11,6.76,14.11,15.96
			c0,11.23-8.06,16.91-16.33,22.55c-5.03-6.9-12.58-14.05-12.58-23.13C426.8,119.74,433.35,113.81,441.59,113.81z M433.53,224.64
			c-12.9,0-22.46-8.49-22.46-23.35c0-16.52,13.16-21.09,21.3-26.16l28.78,35.6C455.49,216.63,447.95,224.29,433.53,224.64z"/>
	</g>
</g>
</svg>
