<svg xmlns="http://www.w3.org/2000/svg" viewBox="0 0 1827.22 340.37"><defs><style>.cls-1{fill:#fff;}</style></defs><title>rr-logo</title><g id="Layer_2" data-name="Layer 2"><g id="Layer_1-2" data-name="Layer 1"><path class="cls-1" d="M997.8,127.7h33.5c19.91,0,32.29,11.29,32.29,28.4v.25c0,19.05-15.3,29-34,29h-16.87v27.31H997.8v-85Zm32.28,44.19c11.29,0,18.33-6.31,18.33-15.17v-.25c0-10-7.16-15.17-18.33-15.17h-17.36v30.59Z"/><path class="cls-1" d="M1124.75,127.1h13.84L1176,212.68H1160.2l-8.62-20.52H1111.4l-8.74,20.52h-15.3Zm21.37,51.83-14.69-34-14.57,34Z"/><path class="cls-1" d="M1214.8,127.7h37.88c10.68,0,19.06,3.16,24.52,8.5a25.69,25.69,0,0,1,7,18.33v.24c0,14-8.38,22.34-20.15,25.74L1287,212.68h-17.72l-20.88-29.62h-18.69v29.62h-14.93v-85Zm36.78,42.12c10.68,0,17.48-5.58,17.48-14.2v-.24c0-9.1-6.55-14.08-17.6-14.08h-21.73v28.52Z"/><path class="cls-1" d="M1347.33,141.54h-26.95V127.7h68.95v13.84h-26.95v71.14h-15.05Z"/><path class="cls-1" d="M1429.37,127.7h13.84l45.52,58.76V127.7h14.69v85h-12.5l-46.86-60.45v60.45h-14.69Z"/><path class="cls-1" d="M1549.52,127.7h63v13.35h-48.07v22.1h42.61V176.5h-42.61v22.82h48.68v13.35h-63.61v-85Z"/><path class="cls-1" d="M1655.11,127.7H1693c10.68,0,19.06,3.16,24.52,8.5a25.69,25.69,0,0,1,7,18.33v.24c0,14-8.38,22.34-20.15,25.74l22.94,32.17h-17.72l-20.88-29.62h-18.69v29.62h-14.93v-85Zm36.78,42.12c10.68,0,17.48-5.58,17.48-14.2v-.24c0-9.1-6.55-14.08-17.6-14.08H1670v28.52Z"/><path class="cls-1" d="M1761.43,200.29l9-10.68c8.13,7,16.39,11.05,26.83,11.05,9.22,0,15.05-4.37,15.05-10.69v-.24c0-6.07-3.4-9.35-19.18-13-18.09-4.37-28.28-9.71-28.28-25.37v-.25c0-14.57,12.14-24.64,29-24.64a47.1,47.1,0,0,1,30.83,10.69l-8,11.29c-7.65-5.7-15.3-8.74-23.06-8.74-8.74,0-13.84,4.49-13.84,10.08V150c0,6.55,3.88,9.47,20.27,13.35,18,4.37,27.19,10.81,27.19,24.89v.24c0,15.9-12.5,25.37-30.35,25.37A52.35,52.35,0,0,1,1761.43,200.29Z"/><path class="cls-1" d="M225.11,145.4V145c0-11.89-4.12-22-11.31-29.44-8.77-8.6-22.26-13.66-39.39-13.66H113.53V238.44h24V190.86h29.21l38.39,47.58,27.39,0-40.93-50.82C210.52,182.16,225.11,167.77,225.11,145.4Zm-87.56,24.14V123.73h34.86c17.78,0,28.32,8,28.32,22.61v.47c0,13.78-10.95,22.73-28.09,22.73Z"/><path class="cls-1" d="M716.55,0A169.91,169.91,0,0,0,580.08,68.5a170.17,170.17,0,0,0-273.19.36,170.19,170.19,0,1,0,0,202.64,170.17,170.17,0,0,0,273.2.36A170.18,170.18,0,1,0,716.55,0ZM170.17,325.35C84.62,325.35,15,255.74,15,170.19S84.63,15,170.17,15A155.05,155.05,0,0,1,297.89,82.26a170.31,170.31,0,0,0,0,175.86A155.09,155.09,0,0,1,170.17,325.35ZM306.89,96.94a154.85,154.85,0,0,1,0,146.5,154.85,154.85,0,0,1,0-146.5ZM443.61,325.35a155.07,155.07,0,0,1-127.73-67.23,170.31,170.31,0,0,0,0-175.86,154.95,154.95,0,0,1,255.18-.4,170.36,170.36,0,0,0,0,176.65A155.09,155.09,0,0,1,443.61,325.35ZM580.09,96.44a154.93,154.93,0,0,1,0,147.5,154.93,154.93,0,0,1,0-147.5ZM716.55,325.35A155,155,0,0,1,589.1,258.51a170.31,170.31,0,0,0,0-176.64A155,155,0,0,1,716.55,15C802.1,15,871.69,84.65,871.69,170.2S802.1,325.35,716.55,325.35Z"/><path class="cls-1" d="M784.59,145.4V145c0-11.89-4.12-22-11.31-29.44-8.77-8.6-22.26-13.66-39.39-13.66H673V238.44h24V190.86h29.21l38.39,47.58,27.39,0-40.93-50.82C770,182.16,784.59,167.77,784.59,145.4ZM697,169.54V123.73h34.86c17.78,0,28.32,8,28.32,22.61v.47c0,13.78-11,22.73-28.09,22.73Z"/><path class="cls-1" d="M496.81,170.94H477.09a93.73,93.73,0,0,1-4.85,21.26l-21.11-26.26c13.3-7.11,24.54-18.67,24.54-35,0-22.2-16.59-33.15-34.55-33.15-18.82,0-34.11,13-34.11,33,0,12.09,6.9,21.22,13.91,30.35-15.8,8.12-31.78,20.67-31.78,40.15,0,26,18.38,41.3,43.8,41.3,16.2,0,28.72-5.78,38.9-18.29l12.51,15.53,26.31,0-25.71-31.9C491,198.16,495.46,182.93,496.81,170.94Zm-55-56.63c8.41,0,14.11,6.76,14.11,16,0,11.23-8.06,16.91-16.33,22.55-5-6.9-12.58-14.05-12.58-23.13C427,120.24,433.57,114.31,441.81,114.31Zm-8.06,110.83c-12.9,0-22.46-8.49-22.46-23.35,0-16.52,13.16-21.09,21.3-26.16l28.78,35.6C455.71,217.13,448.17,224.79,433.75,225.14Z"/></g></g></svg>